<svg xmlns="http://www.w3.org/2000/svg" viewBox="0 0 80 92" width="80" height="92" role="img" aria-label="迟到的回信 · 远方邮戳">
  <defs>
    <linearGradient id="ring-b23" x1=".12" y1="0" x2=".88" y2="1">
      <stop offset="0" stop-color="#fdf3cd"/><stop offset=".16" stop-color="#e3ca90"/>
      <stop offset=".4" stop-color="#b99b5d"/><stop offset=".6" stop-color="#8b723f"/>
      <stop offset=".82" stop-color="#dcc083"/><stop offset="1" stop-color="#f6e7b6"/>
    </linearGradient>
    <linearGradient id="rb-b23" x1="0" y1="0" x2="1" y2="0">
      <stop offset="0" stop-color="#6a5528"/><stop offset=".3" stop-color="#cdae72"/>
      <stop offset=".55" stop-color="#f6e8b8"/><stop offset=".78" stop-color="#cdae72"/><stop offset="1" stop-color="#6a5528"/>
    </linearGradient>
    <linearGradient id="gem-b23" x1="0" y1="0" x2="1" y2="1">
      <stop offset="0" stop-color="#f6e8b8"/><stop offset=".5" stop-color="#cdae72"/><stop offset="1" stop-color="#6a5528"/>
    </linearGradient>
    <radialGradient id="face-b23" cx=".5" cy=".32" r=".82">
      <stop offset="0" stop-color="#17313d"/><stop offset=".5" stop-color="#0c1a22"/><stop offset="1" stop-color="#04090d"/>
    </radialGradient>
    <radialGradient id="amb-b23" cx=".5" cy=".45" r=".55">
      <stop offset="0" stop-color="#ffe9a8" stop-opacity=".26"/><stop offset=".62" stop-color="#ffe9a8" stop-opacity=".08"/><stop offset="1" stop-color="#ffe9a8" stop-opacity="0"/>
    </radialGradient>
    <radialGradient id="vig-b23" cx=".5" cy=".45" r=".55">
      <stop offset=".55" stop-color="#000000" stop-opacity="0"/><stop offset=".86" stop-color="#000000" stop-opacity=".34"/><stop offset="1" stop-color="#000000" stop-opacity=".6"/>
    </radialGradient>
    <linearGradient id="sh-b23" x1=".1" y1="0" x2=".7" y2="1">
      <stop offset="0" stop-color="#ffffff" stop-opacity=".16"/><stop offset=".45" stop-color="#ffffff" stop-opacity=".03"/><stop offset="1" stop-color="#ffffff" stop-opacity="0"/>
    </linearGradient>
    <linearGradient id="cone-b23" x1=".5" y1="0" x2=".5" y2="1">
      <stop offset="0" stop-color="#fff3d8" stop-opacity=".3"/><stop offset=".55" stop-color="#ffe6b4" stop-opacity=".12"/><stop offset="1" stop-color="#ffe6b4" stop-opacity="0"/>
    </linearGradient>
    <filter id="soft-b23" x="-40%" y="-40%" width="180%" height="180%"><feGaussianBlur stdDeviation=".62"/></filter>
    <filter id="bloom-b23" x="-30%" y="-30%" width="160%" height="160%"><feGaussianBlur stdDeviation="1.5"/></filter>
    <filter id="shad-b23" x="-40%" y="-40%" width="180%" height="180%"><feGaussianBlur stdDeviation="1.35"/></filter>
    <clipPath id="clip-b23"><circle cx="40" cy="35.5" r="28.4"/></clipPath>
  </defs>

  <g filter="url(#shad-b23)" opacity=".55" transform="translate(.5 1.8)">
    <path d="M29.4 55 H50.6 L56.4 86.4 L40 79.4 L23.6 86.4 Z" fill="#000000"/>
    <path d="M73.50 35.50 A33.5 33.5 0 1 1 6.50 35.50 A33.5 33.5 0 1 1 73.50 35.50 L69.60 35.50 A29.6 29.6 0 1 0 10.40 35.50 A29.6 29.6 0 1 0 69.60 35.50 Z" fill="#000000"/>
  </g>

  <path d="M29.4 55 H50.6 L56.4 86.4 L40 79.4 L23.6 86.4 Z" fill="url(#rb-b23)" stroke="#6a5528" stroke-width=".6" stroke-linejoin="round"/>
  <path d="M29.4 55 L23.6 86.4 L30.6 86.9 L35.6 55 Z" fill="#000000" opacity=".22"/>
  <path d="M50.6 55 L56.4 86.4 L49.4 86.9 L44.4 55 Z" fill="#ffffff" opacity=".07"/>
  <path d="M30.4 55.6 H49.6" stroke="#000000" stroke-width="1.6" opacity=".3"/>
  <path d="M40 71.4 l2.5 3 l-2.5 3 l-2.5 -3 Z" fill="url(#gem-b23)" stroke="#6a5528" stroke-width=".5" stroke-linejoin="round"/>
  <path d="M33.4 76.4 H37.6 M42.4 76.4 H46.6" stroke="#000000" stroke-width=".7" opacity=".22"/>
  <path d="M73.50 35.50 A33.5 33.5 0 1 1 6.50 35.50 A33.5 33.5 0 1 1 73.50 35.50 L69.60 35.50 A29.6 29.6 0 1 0 10.40 35.50 A29.6 29.6 0 1 0 69.60 35.50 Z" fill="url(#ring-b23)"/>
  <circle cx="40" cy="35.5" r="33" fill="none" stroke="#4b3d1c" stroke-opacity=".55" stroke-width=".5"/>
  <circle cx="40" cy="35.5" r="29.950000000000003" fill="none" stroke="#5a4a24" stroke-opacity=".5" stroke-width=".45"/>
  <path d="M70.20 35.50 L73.20 35.50" stroke="#2b2314" stroke-opacity="0.5" stroke-width="0.75" stroke-linecap="round"/><path d="M70.03 38.66 L72.12 38.88" stroke="#2b2314" stroke-opacity="0.28" stroke-width="0.5" stroke-linecap="round"/><path d="M69.54 41.78 L71.59 42.22" stroke="#2b2314" stroke-opacity="0.28" stroke-width="0.5" stroke-linecap="round"/><path d="M68.72 44.83 L70.72 45.48" stroke="#2b2314" stroke-opacity="0.28" stroke-width="0.5" stroke-linecap="round"/><path d="M67.59 47.78 L69.51 48.64" stroke="#2b2314" stroke-opacity="0.28" stroke-width="0.5" stroke-linecap="round"/><path d="M66.15 50.60 L68.75 52.10" stroke="#2b2314" stroke-opacity="0.5" stroke-width="0.75" stroke-linecap="round"/><path d="M64.43 53.25 L66.13 54.49" stroke="#2b2314" stroke-opacity="0.28" stroke-width="0.5" stroke-linecap="round"/><path d="M62.44 55.71 L64.00 57.11" stroke="#2b2314" stroke-opacity="0.28" stroke-width="0.5" stroke-linecap="round"/><path d="M60.21 57.94 L61.61 59.50" stroke="#2b2314" stroke-opacity="0.28" stroke-width="0.5" stroke-linecap="round"/><path d="M57.75 59.93 L58.99 61.63" stroke="#2b2314" stroke-opacity="0.28" stroke-width="0.5" stroke-linecap="round"/><path d="M55.10 61.65 L56.60 64.25" stroke="#2b2314" stroke-opacity="0.5" stroke-width="0.75" stroke-linecap="round"/><path d="M52.28 63.09 L53.14 65.01" stroke="#2b2314" stroke-opacity="0.28" stroke-width="0.5" stroke-linecap="round"/><path d="M49.33 64.22 L49.98 66.22" stroke="#2b2314" stroke-opacity="0.28" stroke-width="0.5" stroke-linecap="round"/><path d="M46.28 65.04 L46.72 67.09" stroke="#2b2314" stroke-opacity="0.28" stroke-width="0.5" stroke-linecap="round"/><path d="M33.72 65.04 L33.28 67.09" stroke="#2b2314" stroke-opacity="0.28" stroke-width="0.5" stroke-linecap="round"/><path d="M30.67 64.22 L30.02 66.22" stroke="#2b2314" stroke-opacity="0.28" stroke-width="0.5" stroke-linecap="round"/><path d="M27.72 63.09 L26.86 65.01" stroke="#2b2314" stroke-opacity="0.28" stroke-width="0.5" stroke-linecap="round"/><path d="M24.90 61.65 L23.40 64.25" stroke="#2b2314" stroke-opacity="0.5" stroke-width="0.75" stroke-linecap="round"/><path d="M22.25 59.93 L21.01 61.63" stroke="#2b2314" stroke-opacity="0.28" stroke-width="0.5" stroke-linecap="round"/><path d="M19.79 57.94 L18.39 59.50" stroke="#2b2314" stroke-opacity="0.28" stroke-width="0.5" stroke-linecap="round"/><path d="M17.56 55.71 L16.00 57.11" stroke="#2b2314" stroke-opacity="0.28" stroke-width="0.5" stroke-linecap="round"/><path d="M15.57 53.25 L13.87 54.49" stroke="#2b2314" stroke-opacity="0.28" stroke-width="0.5" stroke-linecap="round"/><path d="M13.85 50.60 L11.25 52.10" stroke="#2b2314" stroke-opacity="0.5" stroke-width="0.75" stroke-linecap="round"/><path d="M12.41 47.78 L10.49 48.64" stroke="#2b2314" stroke-opacity="0.28" stroke-width="0.5" stroke-linecap="round"/><path d="M11.28 44.83 L9.28 45.48" stroke="#2b2314" stroke-opacity="0.28" stroke-width="0.5" stroke-linecap="round"/><path d="M10.46 41.78 L8.41 42.22" stroke="#2b2314" stroke-opacity="0.28" stroke-width="0.5" stroke-linecap="round"/><path d="M9.97 38.66 L7.88 38.88" stroke="#2b2314" stroke-opacity="0.28" stroke-width="0.5" stroke-linecap="round"/><path d="M9.80 35.50 L6.80 35.50" stroke="#2b2314" stroke-opacity="0.5" stroke-width="0.75" stroke-linecap="round"/><path d="M9.97 32.34 L7.88 32.12" stroke="#2b2314" stroke-opacity="0.28" stroke-width="0.5" stroke-linecap="round"/><path d="M10.46 29.22 L8.41 28.78" stroke="#2b2314" stroke-opacity="0.28" stroke-width="0.5" stroke-linecap="round"/><path d="M11.28 26.17 L9.28 25.52" stroke="#2b2314" stroke-opacity="0.28" stroke-width="0.5" stroke-linecap="round"/><path d="M12.41 23.22 L10.49 22.36" stroke="#2b2314" stroke-opacity="0.28" stroke-width="0.5" stroke-linecap="round"/><path d="M13.85 20.40 L11.25 18.90" stroke="#2b2314" stroke-opacity="0.5" stroke-width="0.75" stroke-linecap="round"/><path d="M15.57 17.75 L13.87 16.51" stroke="#2b2314" stroke-opacity="0.28" stroke-width="0.5" stroke-linecap="round"/><path d="M17.56 15.29 L16.00 13.89" stroke="#2b2314" stroke-opacity="0.28" stroke-width="0.5" stroke-linecap="round"/><path d="M19.79 13.06 L18.39 11.50" stroke="#2b2314" stroke-opacity="0.28" stroke-width="0.5" stroke-linecap="round"/><path d="M22.25 11.07 L21.01 9.37" stroke="#2b2314" stroke-opacity="0.28" stroke-width="0.5" stroke-linecap="round"/><path d="M24.90 9.35 L23.40 6.75" stroke="#2b2314" stroke-opacity="0.5" stroke-width="0.75" stroke-linecap="round"/><path d="M27.72 7.91 L26.86 5.99" stroke="#2b2314" stroke-opacity="0.28" stroke-width="0.5" stroke-linecap="round"/><path d="M30.67 6.78 L30.02 4.78" stroke="#2b2314" stroke-opacity="0.28" stroke-width="0.5" stroke-linecap="round"/><path d="M33.72 5.96 L33.28 3.91" stroke="#2b2314" stroke-opacity="0.28" stroke-width="0.5" stroke-linecap="round"/><path d="M36.84 5.47 L36.62 3.38" stroke="#2b2314" stroke-opacity="0.28" stroke-width="0.5" stroke-linecap="round"/><path d="M40.00 5.30 L40.00 2.30" stroke="#2b2314" stroke-opacity="0.5" stroke-width="0.75" stroke-linecap="round"/><path d="M43.16 5.47 L43.38 3.38" stroke="#2b2314" stroke-opacity="0.28" stroke-width="0.5" stroke-linecap="round"/><path d="M46.28 5.96 L46.72 3.91" stroke="#2b2314" stroke-opacity="0.28" stroke-width="0.5" stroke-linecap="round"/><path d="M49.33 6.78 L49.98 4.78" stroke="#2b2314" stroke-opacity="0.28" stroke-width="0.5" stroke-linecap="round"/><path d="M52.28 7.91 L53.14 5.99" stroke="#2b2314" stroke-opacity="0.28" stroke-width="0.5" stroke-linecap="round"/><path d="M55.10 9.35 L56.60 6.75" stroke="#2b2314" stroke-opacity="0.5" stroke-width="0.75" stroke-linecap="round"/><path d="M57.75 11.07 L58.99 9.37" stroke="#2b2314" stroke-opacity="0.28" stroke-width="0.5" stroke-linecap="round"/><path d="M60.21 13.06 L61.61 11.50" stroke="#2b2314" stroke-opacity="0.28" stroke-width="0.5" stroke-linecap="round"/><path d="M62.44 15.29 L64.00 13.89" stroke="#2b2314" stroke-opacity="0.28" stroke-width="0.5" stroke-linecap="round"/><path d="M64.43 17.75 L66.13 16.51" stroke="#2b2314" stroke-opacity="0.28" stroke-width="0.5" stroke-linecap="round"/><path d="M66.15 20.40 L68.75 18.90" stroke="#2b2314" stroke-opacity="0.5" stroke-width="0.75" stroke-linecap="round"/><path d="M67.59 23.22 L69.51 22.36" stroke="#2b2314" stroke-opacity="0.28" stroke-width="0.5" stroke-linecap="round"/><path d="M68.72 26.17 L70.72 25.52" stroke="#2b2314" stroke-opacity="0.28" stroke-width="0.5" stroke-linecap="round"/><path d="M69.54 29.22 L71.59 28.78" stroke="#2b2314" stroke-opacity="0.28" stroke-width="0.5" stroke-linecap="round"/><path d="M70.03 32.34 L72.12 32.12" stroke="#2b2314" stroke-opacity="0.28" stroke-width="0.5" stroke-linecap="round"/>
  <circle cx="40" cy="35.5" r="35.6" fill="none" stroke="#ffe9a8" stroke-width=".55" stroke-opacity=".5" stroke-dasharray="1.2 2.6"/>
                  <g fill="#ffe9a8" opacity=".75"><circle cx="38.4" cy="-0.10000000000000142" r=".8"/><circle cx="66.6" cy="59.1" r=".65"/><circle cx="13" cy="58.1" r=".6"/></g>
  <path d="M40 4.100000000000001 l1.9 2.1 l-1.9 2.1 l-1.9 -2.1 Z" fill="#3a3016" opacity=".62"/>
  <text x="40" y="68.1" font-family='Consolas,monospace' font-size="2.9" fill="#2f2612" fill-opacity=".62" text-anchor="middle">E·23</text>
  <circle cx="40" cy="35.5" r="29.6" fill="url(#face-b23)"/>
  <g clip-path="url(#clip-b23)">
    <circle cx="40" cy="35.5" r="29.6" fill="url(#amb-b23)"/>
    <circle cx="40" cy="35.5" r="27.8" fill="none" stroke="#ffe9a8" stroke-width=".5" stroke-opacity=".22" stroke-dasharray=".9 1.5"/>
    <circle cx="40" cy="35.5" r="24.6" fill="none" stroke="#ffe9a8" stroke-width=".4" stroke-opacity=".12"/>
    <g transform="translate(40 35.5)">
      <g filter="url(#bloom-b23)" opacity=".45">
  <g transform="rotate(-4)">
    <rect x="-11.4" y="-19.8" width="22.8" height="15.4" rx="1" fill="#152731" stroke="#ffe9a8" stroke-width="1"/>
    <path d="M-8.2 -15.8 h13 M-8.2 -12.8 h16 M-8.2 -9.6 h11" stroke="#ffe9a8" stroke-width=".9" opacity=".5"/>
  </g>
  <path d="M-16 -8.6 H16 V14.6 H-16 Z" fill="#0a161d" stroke="#ffe9a8" stroke-width="1.3" stroke-linejoin="round"/>
  <path d="M-16 -8.6 L0 3.4 L16 -8.6" fill="none" stroke="#ffe9a8" stroke-width="1.1" opacity=".75"/>
  <g transform="translate(8.8 7.8)">
    <circle r="6.1" fill="none" stroke="#c9dcff" stroke-width="1.1" opacity=".9"/>
    <circle r="4.4" fill="none" stroke="#c9dcff" stroke-width=".6" stroke-dasharray="1 1.5" opacity=".7"/>
    <circle cx="-.65" cy="-.4" r="1.95" fill="#c9dcff" opacity=".8"/>
    <circle cx=".45" cy="-.95" r="1.75" fill="#0a161d"/>
    <path d="M-6.2 -3.6 h-5.2 M-6.8 -1.1 h-5.6 M-7.6 1.4 h-4.8" stroke="#c9dcff" stroke-width=".8" opacity=".6"/>
  </g>
  <circle cx="-16.6" cy="-15.4" r="3.3" fill="none" stroke="#c9dcff" stroke-width="1"/>
  <path d="M-19.9 -15.4 a3.3 3.3 0 0 1 3.3 -3.3" fill="none" stroke="#c9dcff" stroke-width="1" opacity=".7"/>
  <g fill="#c9dcff" opacity=".55"><circle cx="-22" cy="-20.4" r=".7"/><circle cx="-9.4" cy="-22.4" r=".8"/><circle cx="-2.6" cy="-19.6" r=".6"/></g></g>
      <g>
  <g transform="rotate(-4)">
    <rect x="-11.4" y="-19.8" width="22.8" height="15.4" rx="1" fill="#152731" stroke="#ffe9a8" stroke-width="1"/>
    <path d="M-8.2 -15.8 h13 M-8.2 -12.8 h16 M-8.2 -9.6 h11" stroke="#ffe9a8" stroke-width=".9" opacity=".5"/>
  </g>
  <path d="M-16 -8.6 H16 V14.6 H-16 Z" fill="#0a161d" stroke="#ffe9a8" stroke-width="1.3" stroke-linejoin="round"/>
  <path d="M-16 -8.6 L0 3.4 L16 -8.6" fill="none" stroke="#ffe9a8" stroke-width="1.1" opacity=".75"/>
  <g transform="translate(8.8 7.8)">
    <circle r="6.1" fill="none" stroke="#c9dcff" stroke-width="1.1" opacity=".9"/>
    <circle r="4.4" fill="none" stroke="#c9dcff" stroke-width=".6" stroke-dasharray="1 1.5" opacity=".7"/>
    <circle cx="-.65" cy="-.4" r="1.95" fill="#c9dcff" opacity=".8"/>
    <circle cx=".45" cy="-.95" r="1.75" fill="#0a161d"/>
    <path d="M-6.2 -3.6 h-5.2 M-6.8 -1.1 h-5.6 M-7.6 1.4 h-4.8" stroke="#c9dcff" stroke-width=".8" opacity=".6"/>
  </g>
  <circle cx="-16.6" cy="-15.4" r="3.3" fill="none" stroke="#c9dcff" stroke-width="1"/>
  <path d="M-19.9 -15.4 a3.3 3.3 0 0 1 3.3 -3.3" fill="none" stroke="#c9dcff" stroke-width="1" opacity=".7"/>
  <g fill="#c9dcff" opacity=".55"><circle cx="-22" cy="-20.4" r=".7"/><circle cx="-9.4" cy="-22.4" r=".8"/><circle cx="-2.6" cy="-19.6" r=".6"/></g></g>
    </g>
    <ellipse cx="25.4" cy="15.2" rx="25" ry="16.5" fill="url(#sh-b23)" transform="rotate(-28 25.4 15.2)"/>
    <circle cx="40" cy="35.5" r="29.6" fill="url(#vig-b23)"/>
    <circle cx="40" cy="35.5" r="29.3" fill="none" stroke="#ffffff" stroke-width=".5" stroke-opacity=".14"/>
  </g>
  <path d="M15.600000000000001 12.899999999999999 A33.5 33.5 0 0 1 44 2.299999999999997" fill="none" stroke="#fffbe8" stroke-width=".9" stroke-opacity=".5" stroke-linecap="round"/>
</svg>
